<svg xmlns="http://www.w3.org/2000/svg" width="512" height="512" viewBox="0 0 512 512" role="img" aria-label="Speak app icon">
  <defs>
    <!-- Background gradients -->
    <radialGradient id="bgRad" cx="30%" cy="25%" r="80%">
      <stop offset="0%" stop-color="#22d3ee"/>
      <stop offset="45%" stop-color="#3b82f6"/>
      <stop offset="100%" stop-color="#0b1023"/>
    </radialGradient>

    <linearGradient id="waveGrad" x1="0%" y1="0%" x2="100%" y2="100%">
      <stop offset="0%" stop-color="#a78bfa"/>
      <stop offset="45%" stop-color="#22d3ee"/>
      <stop offset="100%" stop-color="#34d399"/>
    </linearGradient>

    <!-- Glow + soft shadow -->
    <filter id="softGlow" x="-30%" y="-30%" width="160%" height="160%">
      <feGaussianBlur in="SourceGraphic" stdDeviation="6" result="blur"/>
      <feColorMatrix in="blur" type="matrix"
        values="1 0 0 0 0
                0 1 0 0 0
                0 0 1 0 0
                0 0 0 0.55 0" result="glow"/>
      <feMerge>
        <feMergeNode in="glow"/>
        <feMergeNode in="SourceGraphic"/>
      </feMerge>
    </filter>

    <filter id="drop" x="-20%" y="-20%" width="140%" height="140%">
      <feOffset dx="0" dy="10" result="off"/>
      <feGaussianBlur in="off" stdDeviation="14" result="blur"/>
      <feColorMatrix in="blur" type="matrix"
        values="0 0 0 0 0
                0 0 0 0 0
                0 0 0 0 0
                0 0 0 0.25 0" result="shadow"/>
      <feMerge>
        <feMergeNode in="shadow"/>
        <feMergeNode in="SourceGraphic"/>
      </feMerge>
    </filter>

    <!-- Subtle texture -->
    <filter id="noise" x="-10%" y="-10%" width="120%" height="120%">
      <feTurbulence type="fractalNoise" baseFrequency="0.9" numOctaves="2" stitchTiles="stitch" result="turb"/>
      <feColorMatrix in="turb" type="matrix"
        values="0 0 0 0 0.08
                0 0 0 0 0.10
                0 0 0 0 0.16
                0 0 0 0.18 0" result="turb2"/>
      <feBlend in="SourceGraphic" in2="turb2" mode="soft-light"/>
    </filter>

    <!-- Clip to keep everything comfortably inside iOS rounded corners -->
    <clipPath id="safe">
      <rect x="36" y="36" width="440" height="440" rx="96" ry="96"/>
    </clipPath>
  </defs>

  <!-- Full-bleed square background -->
  <rect width="512" height="512" fill="url(#bgRad)"/>

  <!-- Big soft shapes for depth -->
  <g opacity="0.85" filter="url(#noise)">
    <circle cx="410" cy="120" r="150" fill="#7c3aed" opacity="0.20"/>
    <circle cx="120" cy="420" r="190" fill="#22d3ee" opacity="0.12"/>
    <circle cx="470" cy="420" r="220" fill="#34d399" opacity="0.10"/>
  </g>

  <!-- Icon mark (speech bubble + melody wave) -->
  <g clip-path="url(#safe)" filter="url(#drop)">
    <!-- Bubble plate -->
    <path d="M152 166
             C152 130 181 101 217 101
             H318
             C357 101 388 132 388 171
             V259
             C388 299 356 331 316 331
             H250
             L195 370
             C186 376 176 368 178 357
             L187 321
             H220
             C183 321 152 290 152 252
             Z"
          fill="rgba(255,255,255,0.10)"
          stroke="rgba(255,255,255,0.22)"
          stroke-width="2"/>

    <!-- Inner glass highlight -->
    <path d="M185 148
             C192 131 209 120 228 120
             H316
             C339 120 358 139 358 162
             V180
             C330 174 302 172 273 175
             C237 179 206 192 185 208
             Z"
          fill="rgba(255,255,255,0.10)"/>

    <!-- Melody / intonation wave (smooth, rising, flowing) -->
    <path d="M132 284
             C164 252 198 245 232 260
             C262 274 292 268 320 242
             C352 212 392 210 420 238
             C448 266 456 312 430 344
             C404 376 356 390 316 372
             C290 360 265 362 238 382
             C206 405 165 404 136 378
             C106 351 102 314 132 284 Z"
          fill="url(#waveGrad)" opacity="0.95" filter="url(#softGlow)"/>

    <!-- Wave cut-lines (like pitch tracks) -->
    <g opacity="0.35">
      <path d="M154 320 C182 292 210 290 238 303 C266 316 295 312 322 289 C352 260 385 260 406 280"
            fill="none" stroke="rgba(255,255,255,0.85)" stroke-width="3" stroke-linecap="round"/>
      <path d="M162 350 C188 330 214 332 240 344 C268 357 295 354 320 334 C346 314 378 315 396 329"
            fill="none" stroke="rgba(255,255,255,0.65)" stroke-width="3" stroke-linecap="round"/>
    </g>

    <!-- Small nodes (intonation points) -->
    <g opacity="0.9">
      <circle cx="186" cy="306" r="6" fill="rgba(255,255,255,0.9)"/>
      <circle cx="252" cy="318" r="6" fill="rgba(255,255,255,0.85)"/>
      <circle cx="318" cy="296" r="6" fill="rgba(255,255,255,0.9)"/>
      <circle cx="388" cy="282" r="6" fill="rgba(255,255,255,0.85)"/>
    </g>
  </g>

  <!-- Subtle top sheen -->
  <path d="M0 0H512V140
           C420 110 330 98 256 98
           C168 98 82 115 0 145Z"
        fill="rgba(255,255,255,0.06)"/>
</svg>